<?xml version="1.0" standalone="no"?>
<!DOCTYPE svg PUBLIC "-//W3C//DTD SVG 20010904//EN"
 "http://www.w3.org/TR/2001/REC-SVG-20010904/DTD/svg10.dtd">
<svg version="1.0" xmlns="http://www.w3.org/2000/svg"
 width="180.000000pt" height="180.000000pt" viewBox="0 0 180.000000 180.000000"
 preserveAspectRatio="xMidYMid meet">

<g transform="translate(0.000000,180.000000) scale(0.100000,-0.100000)"
fill="#000000" stroke="none">
<path d="M1239 1779 c-6 -13 -8 -39 -5 -64 6 -39 5 -44 -28 -69 -19 -14 -37
-26 -41 -26 -3 0 -58 -37 -123 -82 -64 -45 -164 -114 -222 -153 -449 -303
-573 -388 -580 -395 -3 -3 -16 -11 -30 -18 -53 -28 -63 -41 -67 -89 -5 -44 -2
-53 34 -98 21 -28 71 -96 111 -151 49 -69 81 -104 97 -108 31 -8 70 2 110 26
17 10 41 18 54 18 30 0 101 -72 101 -103 0 -12 7 -40 14 -62 28 -78 147 -359
161 -382 24 -37 75 -31 138 15 29 21 77 54 108 74 96 61 129 95 129 134 0 19
-26 98 -57 176 l-57 141 29 24 c17 14 80 58 141 99 94 62 115 80 134 118 21
44 21 47 6 118 -9 40 -23 98 -32 128 -23 80 -23 81 19 109 51 36 77 78 77 127
0 38 22 74 44 74 9 0 138 91 149 105 35 48 15 104 -82 230 -70 92 -79 100
-114 103 -26 2 -45 -3 -64 -18 l-26 -20 -22 20 c-30 28 -90 27 -106 -1z m135
-285 c40 -39 26 -53 -249 -237 -88 -60 -214 -145 -280 -190 -326 -225 -406
-277 -421 -277 -23 0 -54 29 -54 50 0 24 6 29 300 226 338 227 476 321 573
389 82 58 106 65 131 39z m-121 -529 c29 -104 29 -106 -35 -146 -29 -17 -79
-52 -111 -77 -38 -30 -61 -42 -68 -35 -9 9 -41 87 -59 145 -10 32 -5 36 98 99
41 24 90 54 110 66 20 12 39 19 43 15 3 -4 13 -34 22 -67z"/>
</g>
</svg>
